<svg width="660" height="240" viewBox="0 0 660 240" fill="none" xmlns="http://www.w3.org/2000/svg">
<g clip-path="url(#clip0_206_2)">
<path d="M190.168 197.53C190.168 201.017 188.951 202.76 186.516 202.76C185.188 202.76 183.998 202.317 182.946 201.432C180.456 199.273 179.211 195.898 179.211 191.305C179.211 186.767 179.515 182.118 180.124 177.359C180.788 172.6 182.725 163.967 185.935 151.461C180.843 152.07 176.97 152.429 174.313 152.54C165.515 167.315 156.439 180.154 147.087 191.056C146.368 191.72 145.344 192.024 144.016 191.969C142.632 191.969 141.885 191.526 141.774 190.641C141.774 189.7 142.577 188.04 144.182 185.66C145.786 183.281 146.727 181.925 147.004 181.593L165.515 152.54C157.048 152.485 151.846 152.042 149.909 151.212C147.972 150.382 147.004 149.054 147.004 147.228C147.004 146.397 147.613 145.872 148.83 145.65C157.906 144.765 165.321 144.101 171.076 143.658L189.587 112.945L194.899 90.1182C195.342 88.126 196.421 87.1299 198.137 87.1299C199.852 87.0745 201.346 87.1852 202.619 87.4619C206.493 88.3473 208.43 90.1182 208.43 92.7744C208.43 93.1618 207.517 97.4229 205.69 105.558C203.864 113.692 200.738 125.867 196.311 142.081C200.904 141.86 206.991 141.749 214.572 141.749C215.126 141.804 215.762 142.358 216.481 143.409C217.201 144.405 217.588 145.761 217.644 147.477C217.588 148.639 215.292 149.303 210.754 149.469C206.216 149.579 200.655 149.939 194.069 150.548C188.093 173.624 185.104 186.85 185.104 190.226C185.215 191.111 186.073 192.328 187.678 193.878C189.283 195.151 190.113 196.368 190.168 197.53ZM181.369 140.006L179.709 143.077L188.176 142.496C189.227 137.792 190.002 133.697 190.5 130.211C190.334 128.717 189.061 129.436 186.682 132.369C184.357 135.247 182.587 137.792 181.369 140.006ZM237.482 125.978C237.482 134.002 235.269 138.124 230.842 138.346C229.735 138.346 228.684 138.069 227.688 137.516C228.13 147.255 228.352 156.746 228.352 165.987C228.352 175.229 226.608 181.786 223.122 185.66C221.13 187.874 218.557 188.98 215.402 188.98C212.303 189.036 209.951 187.957 208.347 185.743C206.742 183.585 205.939 181.454 205.939 179.352C206.05 176.751 207.71 175.423 210.92 175.367C212.967 175.367 213.853 176.778 213.576 179.601C213.299 182.423 213.964 183.834 215.568 183.834C218.557 183.834 220.383 180.043 221.047 172.462C221.379 168.976 221.517 164.133 221.462 157.936C221.462 151.738 220.964 148.611 219.968 148.556C219.525 148.556 218.916 149.303 218.142 150.797C217.367 152.236 215.485 155.224 212.497 159.762C209.564 164.299 207.019 167.675 204.86 169.889C202.702 172.102 201.291 173.32 200.627 173.541C199.077 174.094 198.192 173.596 197.971 172.047C198.026 170.387 198.884 168.45 200.544 166.236C206.521 158.323 212.276 149.192 217.81 138.844C219.082 136.464 219.719 135.081 219.719 134.693V122.74C219.719 120.471 220.826 118.728 223.039 117.511C223.98 117.013 224.865 116.764 225.695 116.764C229.126 116.819 232.308 117.843 235.241 119.835C236.625 120.831 237.344 121.938 237.399 123.155C237.455 124.373 237.482 125.313 237.482 125.978ZM227.023 131.539C228.905 131.207 229.984 130.571 230.261 129.63C230.593 128.634 230.759 127.665 230.759 126.725C230.759 125.729 230.703 124.981 230.593 124.483C228.933 124.483 227.798 125.646 227.189 127.97C226.968 128.744 226.857 129.464 226.857 130.128C226.857 130.792 226.913 131.262 227.023 131.539ZM271.682 125.978C271.682 134.002 269.468 138.124 265.041 138.346C263.934 138.346 262.883 138.069 261.887 137.516C262.329 147.255 262.551 156.746 262.551 165.987C262.551 175.229 260.808 181.786 257.321 185.66C255.329 187.874 252.756 188.98 249.602 188.98C246.503 189.036 244.151 187.957 242.546 185.743C240.941 183.585 240.139 181.454 240.139 179.352C240.249 176.751 241.91 175.423 245.119 175.367C247.167 175.367 248.052 176.778 247.775 179.601C247.499 182.423 248.163 183.834 249.768 183.834C252.756 183.834 254.582 180.043 255.246 172.462C255.578 168.976 255.716 164.133 255.661 157.936C255.661 151.738 255.163 148.611 254.167 148.556C253.724 148.556 253.116 149.303 252.341 150.797C251.566 152.236 249.685 155.224 246.696 159.762C243.763 164.299 241.218 167.675 239.06 169.889C236.901 172.102 235.49 173.32 234.826 173.541C233.277 174.094 232.391 173.596 232.17 172.047C232.225 170.387 233.083 168.45 234.743 166.236C240.72 158.323 246.475 149.192 252.009 138.844C253.282 136.464 253.918 135.081 253.918 134.693V122.74C253.918 120.471 255.025 118.728 257.238 117.511C258.179 117.013 259.064 116.764 259.895 116.764C263.326 116.819 266.507 117.843 269.44 119.835C270.824 120.831 271.543 121.938 271.599 123.155C271.654 124.373 271.682 125.313 271.682 125.978ZM261.223 131.539C263.104 131.207 264.183 130.571 264.46 129.63C264.792 128.634 264.958 127.665 264.958 126.725C264.958 125.729 264.903 124.981 264.792 124.483C263.132 124.483 261.997 125.646 261.389 127.97C261.167 128.744 261.057 129.464 261.057 130.128C261.057 130.792 261.112 131.262 261.223 131.539ZM289.611 143.326C290.718 143.16 293.098 140.781 296.75 136.188C300.402 131.594 302.229 127.997 302.229 125.396C302.229 125.009 302.09 124.566 301.813 124.068C300.707 125.175 298.382 128.329 294.841 133.531C291.354 138.733 289.611 141.998 289.611 143.326ZM322.648 155.694C325.415 152.706 326.965 152.18 327.297 154.117C327.297 154.837 326.854 156.026 325.969 157.687C323.257 162.722 319.107 168.062 313.518 173.707C304.663 182.672 296.833 187.154 290.026 187.154C286.817 187.154 284.077 186.241 281.809 184.415C277.548 180.929 275.417 174.869 275.417 166.236C275.417 161.311 276.911 154.394 279.899 145.484C282.943 136.52 287.591 128.412 293.845 121.163C296.612 117.621 299.489 115.851 302.478 115.851C303.916 115.851 305.41 116.155 306.96 116.764C310.612 118.258 312.438 120.665 312.438 123.985C312.438 124.483 312.272 125.286 311.94 126.393C309.672 130.875 306.019 136.049 300.983 141.915C295.948 147.781 290.829 152.457 285.627 155.943C283.856 162.363 282.971 167.371 282.971 170.968C282.971 174.565 283.054 176.861 283.22 177.857C283.718 180.182 285.572 181.344 288.781 181.344C291.991 181.344 295.699 179.877 299.904 176.944C304.11 173.956 308.592 170.027 313.352 165.157C318.111 160.287 320.795 157.548 321.403 156.939C322.067 156.331 322.482 155.916 322.648 155.694ZM346.472 119.835L376.271 119.171C376.88 119.171 377.544 119.724 378.264 120.831C378.983 121.882 379.37 123.321 379.426 125.147C379.37 126.365 377.793 127.001 374.694 127.057C365.508 127.278 354.385 128.385 341.325 130.377C340.384 133.089 338.863 136.99 336.76 142.081C327.518 164.438 322.897 180.126 322.897 189.146C322.897 193.629 323.755 197.945 325.471 202.096C328.459 209.068 332.914 212.555 338.835 212.555C343.428 212.555 347.274 211.365 350.373 208.985C353.527 206.661 357.235 202.815 361.496 197.447C362.824 195.732 364.208 195.123 365.646 195.621C367.03 196.23 367.722 197.42 367.722 199.19C367.722 204.282 364.789 208.515 358.923 211.891C353.057 215.322 346.748 217.037 339.997 217.037C333.301 217.037 327.491 214.575 322.565 209.649C317.696 204.724 315.261 198.167 315.261 189.977C315.261 184.498 315.952 178.632 317.336 172.379C318.719 166.126 321.237 158.351 324.89 149.054C328.542 139.701 330.922 133.476 332.028 130.377C320.573 130.377 314.182 130.239 312.854 129.962C308.758 129.076 306.683 127.333 306.628 124.732C306.683 123.902 307.32 123.377 308.537 123.155L335.515 120.914L353.278 91.0312C355.326 87.6003 357.18 85.8848 358.84 85.8848C359.504 85.8848 360.279 85.9954 361.164 86.2168C364.429 86.9362 366.062 88.126 366.062 89.7861C366.062 91.391 364.401 93.8812 361.081 97.2568C357.761 100.632 355.713 102.791 354.938 103.731C352.338 106.941 349.515 112.309 346.472 119.835ZM387.893 125.978C387.893 134.223 385.679 138.346 381.252 138.346C380.145 138.346 379.094 138.069 378.098 137.516C378.54 147.255 378.762 155.667 378.762 162.75C378.762 180.292 374.584 189.063 366.228 189.063C364.291 189.063 362.492 188.538 360.832 187.486C357.788 185.605 356.267 182.893 356.267 179.352C356.322 176.751 358.01 175.423 361.33 175.367C362.271 175.423 362.907 175.755 363.239 176.363C363.571 176.917 363.793 178.3 363.903 180.514C364.069 182.727 364.761 183.834 365.979 183.834C369.797 183.779 371.734 178.079 371.789 166.734L370.129 122.74C370.129 121.578 370.433 120.554 371.042 119.669C372.259 117.843 373.975 116.93 376.188 116.93C378.402 116.93 380.339 117.234 381.999 117.843C385.928 119.392 387.893 122.104 387.893 125.978ZM381.252 126.725L381.003 124.483C380.394 124.483 379.841 124.677 379.343 125.064C377.959 126.061 377.268 127.306 377.268 128.8C377.268 130.294 377.323 131.207 377.434 131.539C379.868 131.152 381.141 129.547 381.252 126.725ZM411.052 94.7666C411.273 93.9365 411.55 92.5807 411.882 90.6992C412.269 88.8177 412.878 87.5449 413.708 86.8809C414.538 86.2168 416.032 85.9124 418.19 85.9678C420.404 86.0231 421.511 86.5488 421.511 87.5449C421.566 88.541 418.467 101.629 412.214 126.808C406.016 151.987 401.838 168.09 399.68 175.118C397.577 182.146 395.64 187.265 393.869 190.475C392.098 193.684 389.691 196.617 386.647 199.273C383.659 201.93 381.501 203.23 380.173 203.175C378.845 203.119 378.153 202.843 378.098 202.345C378.098 201.847 378.43 201.1 379.094 200.104C385.458 190.419 391.102 175.672 396.027 155.86L411.052 94.7666ZM477.541 152.955C477.541 155.722 474.387 160.813 468.078 168.229C461.77 175.644 457.038 180.541 453.884 182.921C450.785 185.245 447.658 186.407 444.504 186.407C438.638 186.352 435.705 181.703 435.705 172.462C435.705 168.09 436.59 161.256 438.361 151.959C440.132 142.607 441.073 137.516 441.184 136.686C435.318 138.622 429.701 145.982 424.333 158.766C423.226 161.477 421.455 166.098 419.021 172.628C416.641 179.103 414.953 182.949 413.957 184.166C412.74 185.605 411.135 186.324 409.143 186.324C407.15 186.324 406.127 185.605 406.071 184.166C406.071 181.51 414.953 159.485 432.717 118.092C435.484 111.562 437.089 107.91 437.531 107.135C438.472 105.309 440.437 105.392 443.425 107.384C444.31 107.993 444.753 108.601 444.753 109.21C444.808 109.819 444.393 110.787 443.508 112.115C441.46 115.325 439.634 119.06 438.029 123.321L434.875 131.539L437.531 128.302C439.911 125.369 441.82 123.155 443.259 121.661C444.698 120.112 445.887 119.254 446.828 119.088C447.824 118.867 448.848 118.756 449.899 118.756C452.168 118.922 453.358 120.139 453.469 122.408C453.469 123.515 453.081 125.009 452.307 126.891C448.82 134.915 446.136 147.062 444.255 163.331C443.757 167.979 443.508 172.075 443.508 175.616C443.563 179.103 444.421 180.873 446.081 180.929C448.405 180.929 452.639 177.332 458.781 170.138C464.924 162.888 469.351 156.884 472.062 152.125C472.782 150.963 473.806 150.354 475.134 150.299C476.517 150.631 477.32 151.516 477.541 152.955ZM495.056 118.673C502.139 118.673 505.681 120.969 505.681 125.562C505.459 127.942 503.55 132.978 499.953 140.67C496.356 148.307 493.7 152.125 491.984 152.125C491.154 151.959 490.629 151.516 490.407 150.797C490.407 150.354 490.684 149.828 491.237 149.22C491.791 148.611 492.455 147.504 493.229 145.899C495.664 141.03 496.882 136.935 496.882 133.614C496.882 130.294 496.411 127.97 495.471 126.642C493.977 126.697 492.233 128.219 490.241 131.207C486.644 136.796 483.518 144.101 480.861 153.121C478.26 162.141 476.96 169.28 476.96 174.537C476.96 175.589 476.988 176.419 477.043 177.027C477.264 180.79 478.841 182.672 481.774 182.672C490.629 182.672 502.609 174.98 517.717 159.596C520.76 156.552 522.448 155.888 522.78 157.604C522.78 158.544 522.227 159.928 521.12 161.754C518.243 166.513 513.788 171.521 507.756 176.778C498.846 184.581 491.21 188.482 484.846 188.482C480.64 188.427 477.264 186.85 474.719 183.751C472.173 180.707 470.568 177.636 469.904 174.537C468.299 167.066 469.268 159.513 472.81 151.876C472.92 151.655 473.474 150.465 474.47 148.307C480.336 135.302 485.731 126.033 490.656 120.499C491.763 119.337 493.229 118.728 495.056 118.673Z" fill="white"/>
<path d="M122 26C431.6 102.8 292.667 186 184.5 218" stroke="white" stroke-width="2"/>
<path d="M559 166.5L122 26.5" stroke="white" stroke-width="2"/>
</g>
<defs>
<clipPath id="clip0_206_2">
<rect width="660" height="240" fill="white"/>
</clipPath>
</defs>
</svg>
